<svg xmlns="http://www.w3.org/2000/svg" width="128" height="128"><g><title>background</title></g><g><title>Layer 1</title><path id="svg_1" fill="#a441cc" d="m42,94.726997l-34,-18.458l0,-7.583l34,-18.457996l0,9.543999l-24.414,12.742001l24.414,12.668999l0,9.543999z"/><path id="svg_2" fill="#a441cc" d="m76.094002,43l-20.700001,62l-8.012001,0l20.616001,-62l8.096001,0z"/><path id="svg_3" fill="#a441cc" d="m119,76.268997l-36,18.458l0,-9.543999l24.412003,-12.705002l-24.412003,-12.705997l0,-9.543999l36,18.457996l0,7.583z"/><polygon id="svg_4" fill="#a441cc" points="95.875 17.75 100.604 26.396 109.25 31.125 100.604 35.854 95.875 44.5 91.146 35.854 82.5 31.125 91.146 26.396"/><polygon id="svg_5" fill="#a441cc" points="68.25 6.5 72.05 13.45 79 17.25 72.05 21.05 68.25 28 64.45 21.05 57.5 17.25 64.45 13.45"/></g></svg>