<svg xmlns="http://www.w3.org/2000/svg" width="16" height="16"><g><title>background</title></g><g><title fill="#a441cc">Layer 1</title><path id="svg_1" fill="#a441cc" d="m5.027107,12.905343l-4.706518,-2.555086l0,-1.049693l4.706518,-2.555083l0,1.321147l-3.379557,1.763836l3.379557,1.753732l0,1.321148z"/><path id="svg_2" fill="#a441cc" d="m9.746635,5.744931l-2.865438,8.582471l-1.109076,0l2.853811,-8.582471l1.120704,0z"/><path id="svg_3" fill="#a441cc" d="m15.685985,10.350257l-4.983373,2.555086l0,-1.321148l3.37928,-1.758716l-3.37928,-1.758852l0,-1.321147l4.983373,2.555083l0,1.049693z"/><polygon id="svg_4" fill="#a441cc" points="12.676 2.654 13.366 3.915 14.627 4.605 13.366 5.295 12.676 6.556 11.987 5.295 10.726 4.605 11.987 3.915"/><polygon id="svg_5" fill="#a441cc" points="9.274 .391 9.898 1.532 11.038 2.155 9.898 2.779 9.274 3.92 8.651 2.779 7.51 2.155 8.651 1.532"/></g></svg>